<svg xmlns="http://www.w3.org/2000/svg" viewBox="0 0 360 440"><path data-region="sky" d="M0 0H360V440H0Z" fill="white" stroke="none"/><g transform="scale(.6 .599455)" stroke="none"><path data-region="r4" d="M346,290 346,295 345,296 344,301 341,307 336,313 336,314 326,324 325,324 322,327 317,329 315,331 313,331 305,335 302,335 301,336 297,336 296,337 278,337 277,336 274,336 273,335 268,334 264,332 262,330 261,330 252,321 251,318 249,316 249,311 252,308 255,308 258,310 260,315 268,323 272,325 274,325 278,327 283,327 284,328 290,328 291,327 297,327 298,326 300,326 301,325 306,324 314,320 316,318 320,316 328,308 328,307 331,304 331,303 333,301 336,295 337,290 339,288 344,288ZM172,258 178,258 179,259 184,259 185,260 188,260 196,264 200,268 201,268 205,272 205,273 210,279 212,283 212,285 214,288 214,292 215,293 215,310 214,311 214,314 213,315 213,317 211,320 211,322 210,324 205,330 205,331 200,336 199,336 193,341 191,342 189,342 186,344 183,344 182,345 168,345 167,344 164,344 163,343 161,343 155,340 152,337 151,337 144,330 144,329 142,327 137,317 137,314 136,313 136,309 135,308 135,295 136,294 136,290 137,289 138,284 141,278 143,276 143,275 153,265 154,265 156,263 160,261 165,260 166,259 171,259ZM227,165 230,165 231,166 236,166 244,170 250,176 250,177 252,179 255,185 255,187 256,188 256,192 257,193 257,201 256,202 256,206 255,207 255,209 252,215 245,222 239,225 236,225 235,226 229,226 228,225 225,225 224,224 222,224 218,222 209,213 206,207 206,205 205,204 205,201 204,200 204,188 205,187 205,184 206,183 206,181 207,179 209,177 209,176 216,169 222,166 226,166ZM288,133 299,133 300,134 302,134 306,136 314,144 319,154 319,157 320,158 320,168 319,169 319,172 318,173 318,175 316,179 308,187 306,188 304,188 303,189 299,189 298,190 296,190 295,189 290,189 284,186 276,178 272,170 272,167 271,166 271,152 272,151 273,146 276,142 276,141 280,137ZM369,104 362,104 361,105 355,105 354,106 349,106 348,107 343,107 342,108 337,108 336,109 332,109 331,110 326,110 325,111 316,112 315,113 312,113 311,114 307,114 306,115 303,115 302,116 298,116 297,117 294,117 293,118 290,118 289,119 282,120 278,122 275,122 271,124 268,124 267,125 265,125 261,127 258,127 257,128 255,128 254,129 252,129 251,130 249,130 248,131 243,132 240,134 238,134 237,135 232,136 224,140 222,140 217,143 215,143 208,147 206,147 204,148 206,153 203,156 201,156 197,153 194,153 188,156 186,158 183,159 181,161 178,162 176,164 173,165 171,167 170,167 169,168 169,173 167,175 160,174 152,181 151,181 146,186 145,186 141,190 141,191 145,194 145,198 144,199 141,200 137,198 135,196 134,196 123,207 123,208 118,213 118,214 115,217 115,218 110,224 99,246 99,248 98,249 98,251 97,252 97,254 95,258 95,262 94,263 94,266 93,267 93,272 92,273 92,281 91,282 91,297 92,298 92,306 93,307 93,312 94,313 94,317 95,318 95,320 96,321 96,324 97,325 97,327 98,328 99,333 101,336 101,338 108,352 110,354 110,355 112,357 114,361 122,370 122,371 130,379 131,379 140,387 141,387 149,393 152,394 154,396 162,400 164,400 169,403 171,403 172,404 174,404 175,405 177,405 178,406 180,406 184,408 187,408 188,409 191,409 192,410 196,410 197,411 202,411 203,412 209,412 210,413 222,413 223,414 238,414 239,413 250,413 251,412 258,412 259,411 263,411 264,410 273,409 274,408 277,408 281,406 284,406 285,405 287,405 288,404 293,403 303,398 305,398 313,394 315,392 320,390 322,388 323,388 325,386 329,384 338,376 339,376 349,366 349,365 353,361 353,360 356,357 356,356 360,351 361,348 363,346 366,340 366,338 368,335 368,333 369,332 369,330 371,326 371,322 372,321 372,317 373,316 373,296 372,295 372,290 371,289 371,286 370,285 370,282 369,281 369,279 359,259 353,259 351,257 351,255 355,252 355,250 357,248 360,248 362,250 366,250 367,249 369,249 370,248 375,247 380,244 382,244 386,241 393,238 395,236 396,236 398,234 399,234 401,232 405,230 408,227 409,227 424,213 424,212 413,212 412,211 408,211 407,210 405,210 399,207 397,205 393,203 383,193 383,192 380,189 380,188 376,183 369,169 369,167 368,166 368,164 367,163 367,161 366,160 366,158 364,154 364,150 363,149 363,145 362,144 362,123 363,122 363,118 364,117 364,115 366,112 366,110 367,108 369,106Z" fill="white" fill-rule="evenodd"/><path data-region="r27" d="M108,516 109,517 110,524 111,525 112,530 114,533 114,535 118,543 120,545 122,549 133,560 134,560 140,565 143,566 145,568 151,571 153,571 158,574 160,574 161,575 166,576 169,578 172,578 176,580 179,580 180,581 183,581 184,582 187,582 188,583 191,583 192,584 196,584 197,585 203,585 204,586 209,586 210,587 219,587 220,588 238,588 239,589 245,589 246,588 266,588 267,587 276,587 277,586 284,586 285,585 290,585 291,584 296,584 297,583 301,583 302,582 306,582 307,581 314,580 315,579 317,579 318,578 320,578 321,577 323,577 324,576 327,576 330,574 332,574 348,566 350,564 354,562 358,558 358,556 355,556 354,555 352,555 348,551 347,549 347,542 349,538 353,533 354,533 359,529 361,529 364,527 367,527 368,526 373,526 374,525 376,525 376,521 373,521 372,520 370,520 369,519 364,518 354,513 348,508 347,508 342,503 341,503 338,508 337,513 334,519 332,521 332,522 328,526 327,528 326,528 322,532 318,534 316,534 315,535 307,535 306,534 304,534 297,528 296,525 293,525 287,522 285,518 284,517 282,517 278,513 278,511 277,510 277,507 278,506 278,504 280,500 285,495 286,495 288,493 292,491 295,491 296,490 300,490 301,489 310,489 312,480 317,470 319,468 321,464 318,464 317,463 311,463 310,462 306,462 305,461 302,461 301,460 298,460 297,459 292,458 280,452 278,450 278,448 280,446 284,446 287,448 289,448 292,450 294,450 298,452 301,452 302,453 305,453 306,454 310,454 311,455 315,455 316,456 323,456 324,457 336,457 337,458 359,458 360,459 362,459 363,458 375,458 376,457 381,457 387,460 389,460 390,461 393,461 394,462 409,462 415,459 418,455 418,451 414,448 412,449 410,449 408,447 408,445 417,440 417,439 419,437 419,431 418,429 414,426 408,426 404,428 401,428 400,429 398,429 396,427 396,425 401,420 402,418 402,415 401,413 399,412 397,413 395,413 391,416 390,416 381,426 381,427 376,432 369,432 368,433 346,433 345,432 337,432 336,431 331,431 330,430 326,430 325,429 322,429 321,428 314,427 313,426 311,426 310,425 308,425 307,424 302,423 297,420 295,420 289,417 287,415 282,415 281,416 278,416 277,417 274,417 273,418 269,418 268,419 263,419 262,420 256,420 255,421 247,421 246,422 215,422 214,421 206,421 205,420 199,420 198,419 193,419 192,418 189,418 188,417 185,417 184,416 181,416 180,415 177,415 176,414 174,414 173,413 168,412 163,409 161,409 147,402 142,398 140,397 138,397 128,409 123,419 121,421 121,423 117,430 117,432 114,438 114,440 113,441 113,444 111,448 111,451 110,452 110,456 109,457 109,461 108,462 108,468 107,469 107,477 106,478 106,501 107,502 107,510 108,511Z" fill="white" fill-rule="evenodd"/><path data-region="r9" d="M524,273 528,273 531,277 531,280 528,283 524,283 522,281 522,279 521,277ZM538,269 541,270 543,272 543,278 541,280 537,280 534,276 534,273 535,271ZM453,258 457,258 458,259 460,259 465,263 465,264 468,268 468,272 469,273 468,280 467,282 462,287 460,287 459,288 455,288 454,287 452,287 446,281 444,277 444,267 446,263 449,260ZM478,250 480,250 481,249 486,249 490,251 494,255 495,257 495,259 496,260 496,269 494,273 489,277 482,277 480,276 474,270 474,268 473,267 473,263 472,261 473,260 473,256ZM526,257 524,257 521,255 519,255 518,254 516,254 515,253 513,253 512,252 510,252 506,250 503,250 502,249 499,249 498,248 494,248 493,247 489,247 488,246 482,246 481,245 463,245 462,246 459,246 458,247 456,247 452,249 450,251 446,253 438,261 438,262 434,266 431,272 429,274 424,284 424,286 421,291 421,293 419,296 419,298 418,299 418,301 417,302 417,304 415,308 415,311 413,315 413,318 412,319 411,326 409,330 409,334 408,335 408,338 407,339 407,342 406,343 406,346 405,347 405,350 404,351 403,358 402,359 402,361 401,362 401,364 400,365 400,367 399,368 399,370 398,371 397,376 395,379 395,381 392,386 392,388 388,396 386,398 381,408 369,424 369,425 371,425 373,424 379,417 379,416 384,411 385,411 391,406 393,406 394,405 403,405 405,406 408,409 410,413 410,418 414,418 415,419 418,419 420,420 426,426 426,428 427,429 427,438 426,439 426,441 424,443 424,446 426,449 426,456 425,457 425,459 424,461 419,466 413,469 410,469 409,470 395,470 394,469 390,469 389,468 386,468 380,465 375,465 374,466 345,466 344,465 330,465 327,468 327,469 323,474 320,480 320,482 318,486 318,489 317,490 317,493 315,496 303,496 302,497 298,497 297,498 292,499 286,504 285,506 285,509 286,509 287,507 291,503 293,502 297,502 298,503 298,506 293,511 292,513 292,516 295,518 297,518 297,517 301,512 302,512 305,509 309,509 310,510 310,513 304,520 303,522 304,525 310,528 312,528 313,527 315,527 319,525 325,519 325,518 327,516 331,508 332,503 335,497 337,495 337,494 344,487 347,487 349,489 349,491 347,493 347,497 356,505 370,512 372,512 373,513 378,513 378,510 380,507 380,505 381,503 386,497 386,496 388,494 392,492 395,495 395,496 390,502 386,510 386,512 385,513 385,516 384,517 384,523 383,524 383,530 381,532 377,532 376,533 370,533 369,534 364,535 360,537 356,541 355,543 355,547 356,548 358,548 358,546 360,544 360,543 364,539 366,538 368,538 370,540 370,542 369,544 366,547 364,551 364,552 366,554 371,554 374,548 378,544 381,543 384,546 383,549 380,552 378,557 380,560 382,561 384,561 385,562 387,562 388,561 390,561 392,560 399,553 401,549 402,544 403,543 403,538 404,537 405,530 408,525 408,523 410,521 411,518 413,516 415,512 420,507 422,507 425,510 425,511 417,523 417,524 419,526 425,529 427,531 441,538 443,538 446,540 448,540 449,541 451,541 452,542 454,542 458,544 461,544 465,546 469,546 470,547 473,547 474,548 479,548 480,549 489,549 490,550 509,550 510,549 519,549 520,548 525,548 526,547 530,547 531,546 534,546 538,544 541,544 542,543 544,543 547,541 549,541 552,539 554,539 558,537 563,533 563,532 561,532 560,533 548,533 547,532 537,532 536,531 531,531 530,530 527,530 526,529 519,528 518,527 513,526 508,523 506,523 500,520 498,518 495,517 489,512 488,512 483,507 482,507 481,505 475,499 475,498 473,496 469,488 469,486 468,485 468,475 469,474 469,471 470,470 470,459 468,459 467,460 455,460 451,458 448,455 446,451 446,442 444,441 440,437 438,433 438,426 439,425 439,423 443,419 443,415 442,414 442,408 444,404 447,401 451,399 453,399 454,398 461,398 462,399 466,399 472,402 474,402 474,387 475,386 475,370 476,369 476,358 477,357 477,350 480,347 493,347 494,348 498,348 499,349 502,349 503,350 506,350 507,351 511,351 512,352 521,352 522,351 525,351 526,350 528,350 532,347 532,346 530,345 528,345 522,342 520,340 515,338 507,332 504,331 502,329 501,329 499,327 498,327 496,325 495,325 493,323 492,323 490,321 489,321 487,319 486,319 484,317 483,317 481,315 480,315 478,313 474,311 471,308 471,305 475,302 480,302 481,301 486,301 487,300 491,300 492,299 501,298 502,297 505,297 506,296 510,296 511,295 514,295 515,294 518,294 519,293 522,293 523,292 526,292 527,291 534,290 535,289 537,289 538,288 543,287 546,285 549,285 551,284 552,282 552,277 550,273 544,267 543,267 538,263Z" fill="white" fill-rule="evenodd"/><path data-region="r3" d="M393,143 400,143 406,149 407,151 407,160 406,162 403,165 401,166 397,166 395,165 391,161 389,157 389,154 388,153 389,151 389,148 390,146ZM424,133 428,133 430,134 435,139 435,141 436,142 436,151 435,153 432,156 425,156 419,150 419,148 418,147 418,139 419,137 422,134ZM388,101 382,104 378,108 378,109 376,111 376,112 373,116 373,118 372,119 372,122 371,123 371,130 370,131 370,135 371,136 371,144 372,145 372,149 373,150 373,153 374,154 374,156 375,157 375,159 376,160 377,165 380,170 380,172 381,174 383,176 384,179 386,181 388,185 391,188 391,189 401,198 409,202 411,202 412,203 424,203 425,202 430,201 434,198 435,198 441,193 441,192 446,186 448,182 448,180 450,177 450,174 451,173 451,169 452,168 452,151 451,150 451,146 450,145 450,142 449,141 448,136 446,133 446,131 443,127 440,121 434,115 434,114 433,114 428,109 427,109 422,105 418,103 416,103 415,102 410,101 409,100 404,100 403,99 397,99 396,100 391,100 390,101Z" fill="white" fill-rule="evenodd"/><path data-region="r11" d="M170,264 169,265 166,265 165,266 163,266 157,269 150,275 150,276 147,279 146,282 144,284 144,286 143,287 143,289 141,293 141,300 140,302 141,303 141,310 142,311 142,313 143,314 144,319 147,323 147,324 149,326 149,327 155,333 156,333 158,335 164,338 166,338 167,339 171,339 172,340 177,340 178,339 183,339 184,338 186,338 192,335 200,328 200,327 203,324 208,314 208,311 209,310 209,303 210,302 210,300 209,299 209,293 208,292 208,289 203,279 197,272 196,272 193,269 187,266 185,266 184,265 181,265 180,264Z" fill="white" fill-rule="evenodd"/><path data-region="r2" d="M207,70 200,70 199,71 194,72 192,74 191,74 186,80 185,82 185,84 184,85 184,87 183,88 183,105 184,106 185,113 186,114 186,116 187,117 188,122 191,127 191,129 193,131 198,141 200,141 203,139 205,139 212,135 214,135 217,133 219,133 224,130 226,130 232,127 234,127 234,114 233,113 233,107 232,106 232,102 231,101 231,99 230,98 230,95 228,92 228,90 225,84 223,82 223,81 216,74 215,74 211,71 208,71Z" fill="white" fill-rule="evenodd"/><path data-region="r38" d="M152,649 153,650 153,652 157,656 161,658 163,658 164,659 172,659 173,660 206,660 207,659 214,659 215,658 220,658 221,657 224,657 225,656 230,655 236,652 241,647 242,645 242,640 240,636 235,631 229,628 227,628 226,627 222,627 221,626 217,626 216,625 190,625 189,626 183,626 182,627 173,628 172,629 170,629 169,630 164,631 158,634 154,638 153,640 153,642 152,643Z" fill="white" fill-rule="evenodd"/><path data-region="r5" d="M112,117 108,119 103,124 101,128 101,132 100,133 100,136 101,137 101,141 102,142 102,145 103,146 103,148 108,158 110,160 112,164 116,168 116,169 128,181 129,181 132,184 135,184 146,174 147,174 150,171 151,171 155,167 159,165 159,161 158,160 157,155 155,152 155,150 150,140 148,138 146,134 143,131 143,130 137,124 136,124 133,121 127,118 125,118 124,117Z" fill="white" fill-rule="evenodd"/><path data-region="r39" d="M297,642 297,648 298,650 301,653 305,655 308,655 309,656 312,656 313,657 319,657 320,658 335,658 336,659 344,659 345,658 358,658 359,657 364,657 365,656 369,656 370,655 373,655 374,654 376,654 382,651 386,647 387,645 387,639 385,635 382,632 376,629 371,628 370,627 367,627 366,626 360,626 359,625 336,625 335,626 328,626 327,627 323,627 322,628 315,629 314,630 309,631 305,633 303,635 302,635 299,638Z" fill="white" fill-rule="evenodd"/><path data-region="r24" d="M367,409 364,406 359,396 359,388 353,382 352,382 349,379 348,379 338,388 337,388 334,391 333,391 322,399 302,409 297,410 296,412 300,414 302,414 305,416 307,416 308,417 313,418 314,419 317,419 318,420 321,420 322,421 325,421 326,422 330,422 331,423 336,423 337,424 342,424 342,415 345,411 347,410 349,410 350,409 364,409 365,410 367,410Z" fill="white" fill-rule="evenodd"/><path data-region="r28" d="M454,406 450,409 450,413 453,416 456,416 457,417 459,417 461,419 461,420 458,423 451,423 449,424 446,427 446,431 449,435 451,435 452,436 461,436 462,437 462,440 459,442 457,442 455,443 453,446 455,451 459,453 462,453 463,452 466,452 472,449 478,443 480,439 480,437 481,436 481,424 480,423 480,420 479,418 473,411 470,410 468,408 466,408 462,406Z" fill="white" fill-rule="evenodd"/><path data-region="r31" d="M71,498 74,498 76,499 78,501 78,503 79,504 79,509 75,517 73,517 70,514 67,508 67,503 68,501ZM34,520 36,525 39,529 40,529 43,532 47,534 49,534 50,535 54,535 55,536 60,536 61,535 64,535 65,534 67,534 71,531 72,531 74,529 77,529 85,533 97,533 103,530 103,528 102,527 102,524 99,524 98,525 95,525 94,526 88,526 87,525 84,525 81,523 81,519 85,511 85,500 82,494 80,492 76,490 69,490 65,492 62,495 60,499 60,510 61,511 61,513 64,517 64,518 68,522 68,525 66,527 64,528 62,528 61,529 52,529 51,528 49,528 47,527 40,520 40,519 38,517 35,518Z" fill="white" fill-rule="evenodd"/><path data-region="r7" d="M226,172 225,173 223,173 219,175 215,179 212,185 212,187 211,188 211,200 212,201 213,206 215,208 216,211 220,215 228,219 235,219 243,215 243,214 246,211 246,210 239,210 235,208 231,204 230,202 230,200 229,199 229,194 230,193 230,191 231,189 235,185 237,184 239,184 240,183 244,183 246,184 246,182 239,175 235,173 233,173 232,172Z" fill="white" fill-rule="evenodd"/><path data-region="r6" d="M292,139 291,140 288,140 286,141 280,147 279,149 279,151 278,152 278,155 277,156 277,162 278,163 278,167 282,175 287,180 291,182 293,182 294,183 300,183 306,180 309,177 310,174 301,174 299,173 295,169 294,167 294,164 293,163 293,159 294,158 294,156 298,151 302,149 308,149 308,147 301,141 299,140 296,140 295,139Z" fill="white" fill-rule="evenodd"/><path data-region="r36" d="M182,590 180,589 177,589 173,587 166,586 166,592 165,593 165,601 164,602 164,609 163,610 163,616 162,617 162,624 164,623 166,623 167,622 169,622 170,621 177,620 178,619 178,615 179,614 179,608 180,607 180,600 181,599 181,594 182,593Z" fill="white" fill-rule="evenodd"/><path data-region="r37" d="M316,588 314,588 313,589 310,589 309,590 305,590 304,591 300,591 300,605 301,606 301,626 303,626 306,624 308,624 309,623 311,623 312,622 314,622 316,621Z" fill="white" fill-rule="evenodd"/><path data-region="r25" d="M519,398 518,396 516,395 513,395 511,393 511,390 513,388 518,388 519,386 513,386 512,387 509,387 507,385 507,383 510,379 510,378 508,378 502,385 495,385 494,384 489,384 488,383 483,383 482,384 482,390 486,390 487,391 493,391 494,392 498,392 501,395 501,400 503,404 504,404 505,402 505,397 507,395 509,395 514,398Z" fill="white" fill-rule="evenodd"/><path data-region="r26" d="M383,387 374,387 373,388 369,388 366,390 366,393 371,403 373,405 374,405 379,395 381,393 383,389Z" fill="white" fill-rule="evenodd"/><path data-region="r23" d="M394,359 392,360 388,360 387,361 382,362 378,365 381,372 386,378 388,378 388,376 391,370 391,368 392,367 392,365 393,364Z" fill="white" fill-rule="evenodd"/><path data-region="r14" d="M413,292 407,292 406,293 403,293 402,294 400,294 398,296 397,296 397,298 399,302 401,304 401,305 406,310 407,310 408,308 408,305 409,304 409,302 410,301 410,299 411,298 411,296Z" fill="white" fill-rule="evenodd"/><path data-region="r21" d="M402,326 397,328 389,334 389,337 391,339 391,340 397,345 398,345 399,343 399,339 400,338 400,335 401,334 401,331 402,330Z" fill="white" fill-rule="evenodd"/><path data-region="r12" d="M425,265 414,265 411,267 412,269 412,271 417,279 419,278 422,271 425,267Z" fill="white" fill-rule="evenodd"/><path data-region="r29" d="M350,425 358,425 362,421 364,417 362,416 353,416 352,417 350,417 349,418Z" fill="white" fill-rule="evenodd"/><path data-region="r13" d="M454,264 450,267 450,269 449,270 449,274 451,278 455,282 459,282 461,280 461,279 456,279 454,278 452,275 452,269 455,266 457,265 457,264Z" fill="white" fill-rule="evenodd"/><path data-region="r10" d="M481,255 478,259 478,264 479,265 479,267 483,271 488,271 489,269 484,269 480,265 480,260 481,258 483,256 486,256 486,255Z" fill="white" fill-rule="evenodd"/><path data-region="r8" d="M435,243 434,243 434,245 433,246 433,254 434,254 440,248 441,248 440,246 439,246Z" fill="white" fill-rule="evenodd"/><path data-region="r32" d="M492,504 492,505 494,507 495,507 497,509 499,509 499,503 498,502Z" fill="white" fill-rule="evenodd"/><path data-region="r30" d="M476,483 478,489 480,490 481,488 481,484 479,483Z" fill="white" fill-rule="evenodd"/><path data-region="r33" d="M511,515 512,517 514,518 517,518 517,515 516,513 514,513 512,515Z" fill="white" fill-rule="evenodd"/><path data-region="r34" d="M533,518 532,518 529,521 530,523 534,523 534,520Z" fill="white" fill-rule="evenodd"/><path data-outline="true" pointer-events="none" d="M296,648 296,642 298,638 305,632 309,630 314,629 315,628 318,628 319,627 322,627 323,626 327,626 328,625 335,625 336,624 359,624 360,625 366,625 367,626 370,626 371,627 376,628 382,631 386,635 388,639 388,645 387,647 382,652 376,655 374,655 373,656 370,656 369,657 365,657 364,658 359,658 358,659 345,659 344,660 336,660 335,659 320,659 319,658 313,658 312,657 305,656 301,654 297,650ZM151,649 151,643 152,642 152,640 153,638 158,633 164,630 166,630 167,629 169,629 173,627 177,627 178,626 182,626 183,625 189,625 190,624 216,624 217,625 226,626 227,627 229,627 235,630 241,636 243,640 243,645 242,647 236,653 230,656 225,657 224,658 221,658 220,659 215,659 214,660 207,660 206,661 173,661 172,660 164,660 163,659 161,659 157,657 152,652 152,650ZM316,587 317,588 317,621 314,623 312,623 311,624 306,625 303,627 301,627 300,626 300,606 299,605 299,591 300,590 304,590 305,589 309,589 310,588 313,588 314,587ZM183,590 183,593 182,594 182,599 181,600 181,607 180,608 180,614 179,615 179,619 177,621 170,622 169,623 167,623 166,624 164,624 162,625 161,624 161,617 162,616 162,610 163,609 163,602 164,601 164,593 165,592 165,586 166,585 169,585 170,586 173,586 174,587 176,587 177,588 180,588ZM546,524 550,520 551,520 554,524 554,525 553,526 547,526ZM532,517 533,517 535,520 535,523 534,524 530,524 528,522 528,521ZM510,515 514,512 516,512 518,515 518,518 517,519 514,519 512,518 510,516ZM491,504 494,502 496,502 498,501 500,503 500,509 499,510 497,510 495,508 494,508 491,505ZM71,499 68,503 68,508 71,514 73,516 75,516 77,512 77,510 78,509 78,504 76,500 74,499ZM33,520 35,517 38,516 41,519 41,520 47,526 49,527 51,527 52,528 61,528 62,527 64,527 67,525 67,522 63,518 59,510 59,499 61,495 65,491 69,489 76,489 80,491 83,494 86,500 86,511 82,519 82,523 84,524 87,524 88,525 94,525 95,524 102,523 103,524 103,527 104,528 104,530 97,534 85,534 77,530 74,530 72,532 71,532 67,535 65,535 64,536 61,536 60,537 55,537 54,536 50,536 49,535 47,535 43,533 40,530 39,530 35,525ZM476,482 479,482 482,484 482,488 480,491 479,491 476,487 476,485 475,484ZM349,425 348,418 350,416 352,416 353,415 362,415 365,417 363,421 358,426 350,426ZM454,405 462,405 463,406 468,407 470,409 473,410 478,415 478,416 480,418 481,420 481,423 482,424 482,436 481,437 481,439 479,443 472,450 466,453 463,453 462,454 459,454 455,452 452,447 453,444 455,442 461,440 461,437 452,437 451,436 449,436 446,433 445,431 445,427 449,423 451,422 458,422 460,420 459,418 457,418 456,417 453,417 449,413 449,409 452,406ZM107,516 107,511 106,510 106,502 105,501 105,478 106,477 106,469 107,468 107,462 108,461 108,457 109,456 109,452 110,451 110,448 111,447 111,445 112,444 112,441 115,435 116,430 120,423 120,421 122,419 127,409 134,401 134,400 138,396 140,396 144,399 145,399 147,401 161,408 163,408 168,411 170,411 171,412 173,412 177,414 180,414 181,415 184,415 185,416 192,417 193,418 198,418 199,419 205,419 206,420 214,420 215,421 246,421 247,420 255,420 256,419 262,419 263,418 268,418 269,417 273,417 274,416 277,416 278,415 281,415 282,414 287,414 289,416 295,419 297,419 302,422 304,422 305,423 307,423 308,424 310,424 314,426 317,426 318,427 321,427 322,428 325,428 326,429 330,429 331,430 336,430 337,431 345,431 346,432 368,432 369,431 376,431 385,421 385,420 390,415 391,415 395,412 397,412 399,411 402,413 403,415 403,418 402,420 397,425 397,427 398,428 400,428 401,427 404,427 408,425 414,425 416,426 419,429 420,431 420,437 418,439 418,440 416,442 409,445 409,447 410,448 412,448 413,447 416,448 419,451 419,455 418,457 415,460 409,463 394,463 393,462 390,462 389,461 387,461 381,458 376,458 375,459 363,459 362,460 360,460 359,459 337,459 336,458 324,458 323,457 316,457 315,456 311,456 310,455 306,455 305,454 298,453 297,452 292,451 289,449 287,449 284,447 280,447 279,448 279,450 280,451 292,457 294,457 298,459 301,459 302,460 305,460 306,461 310,461 311,462 317,462 318,463 321,463 322,464 322,465 318,470 313,480 313,482 312,483 312,486 310,490 301,490 300,491 296,491 295,492 292,492 288,494 286,496 285,496 281,500 279,504 279,506 278,507 278,510 279,511 279,513 282,516 284,516 286,518 287,521 288,521 290,523 292,523 293,524 296,524 298,528 304,533 306,533 307,534 315,534 316,533 318,533 322,531 326,527 327,527 327,526 331,522 331,521 333,519 336,513 337,508 339,504 341,502 342,502 347,507 348,507 354,512 364,517 366,517 367,518 369,518 373,520 376,520 377,521 377,525 376,526 374,526 373,527 368,527 367,528 364,528 361,530 359,530 357,532 353,534 350,538 348,542 348,549 349,551 352,554 354,554 355,555 358,555 359,556 359,558 354,563 353,563 348,567 332,575 330,575 327,577 324,577 323,578 321,578 320,579 318,579 314,581 311,581 310,582 307,582 306,583 302,583 301,584 297,584 296,585 291,585 290,586 285,586 284,587 277,587 276,588 267,588 266,589 246,589 245,590 239,590 238,589 220,589 219,588 210,588 209,587 204,587 203,586 197,586 196,585 192,585 191,584 188,584 187,583 184,583 183,582 176,581 172,579 169,579 166,577 164,577 163,576 158,575 153,572 151,572 145,569 143,567 140,566 134,561 133,561 121,549 121,548 117,543 113,535 113,533 111,530 111,528 109,524 108,517ZM383,386 384,387 384,389 382,393 380,395 378,400 376,402 375,405 373,406 370,403 365,393 365,390 369,387 373,387 374,386ZM368,409 367,411 365,411 364,410 350,410 349,411 347,411 345,412 343,415 343,424 342,425 337,425 336,424 331,424 330,423 326,423 325,422 322,422 321,421 314,420 313,419 311,419 310,418 305,417 302,415 300,415 295,412 295,411 297,409 302,408 322,398 324,396 325,396 327,394 328,394 330,392 334,390 337,387 338,387 348,378 349,378 352,381 353,381 360,388 360,396 365,406ZM520,398 519,399 514,399 509,396 507,396 506,397 506,402 505,404 503,405 501,403 501,401 500,400 500,395 498,393 494,393 493,392 487,392 486,391 482,391 481,390 481,384 483,382 488,382 489,383 494,383 495,384 502,384 503,382 508,377 510,377 511,379 509,381 508,383 508,385 509,386 512,386 513,385 519,385 520,386 520,387 518,389 513,389 512,390 512,393 513,394 516,394 518,395 520,397ZM394,358 395,359 395,361 394,362 394,364 393,365 392,370 390,373 389,378 388,379 386,379 380,372 377,365 380,362 382,361 384,361 388,359 392,359ZM523,332 525,331 526,332 526,334 524,335 523,334ZM402,325 403,326 403,330 402,331 402,334 401,335 401,338 400,339 400,343 399,345 397,346 390,340 390,339 388,337 388,334 391,331 392,331 397,327ZM510,325 511,324 513,324 514,325 514,327 512,328 510,326ZM486,309 487,308 489,308 493,312 493,313 491,314 489,312 488,312 486,310ZM495,306 496,305 499,305 500,306 500,309 499,310 497,310 495,308ZM508,303 509,302 513,302 514,303 514,305 512,307 511,307 508,304ZM522,300 523,299 527,299 528,301 527,303 525,304 522,301ZM538,295 540,296 540,299 539,300 538,300 536,298 536,297ZM413,291 414,293 412,296 412,298 411,299 411,301 409,305 409,308 408,310 406,311 400,305 400,304 398,302 396,298 396,296 400,293 402,293 403,292 406,292 407,291ZM345,290 344,289 339,289 338,290 337,295 334,301 329,307 329,308 320,317 319,317 314,321 306,325 304,325 303,326 301,326 297,328 291,328 290,329 284,329 283,328 278,328 277,327 272,326 268,324 259,315 257,310 255,309 252,309 250,311 250,316 252,318 253,321 261,329 262,329 264,331 268,333 270,333 274,335 277,335 278,336 296,336 297,335 301,335 302,334 305,334 313,330 315,330 317,328 322,326 325,323 326,323 335,314 335,313 340,307 343,301 343,299 345,295ZM524,274 522,277 523,279 523,281 524,282 528,282 530,280 530,277 528,274ZM538,270 536,271 535,273 535,276 537,279 541,279 542,278 542,272ZM425,264 426,265 426,267 423,271 420,278 418,280 417,280 415,278 414,275 412,273 410,267 414,264ZM454,263 457,263 458,265 453,269 453,275 454,277 456,278 461,278 462,279 462,280 459,283 455,283 450,278 448,274 448,270 449,269 449,267 452,264ZM170,263 180,263 181,264 184,264 185,265 187,265 193,268 196,271 197,271 204,279 209,289 209,292 210,293 210,299 211,300 211,302 210,303 210,310 209,311 209,314 204,324 201,327 201,328 192,336 186,339 184,339 183,340 178,340 177,341 172,341 171,340 167,340 166,339 164,339 158,336 156,334 155,334 148,327 148,326 146,324 146,323 143,319 143,317 142,316 142,314 140,310 140,303 139,302 140,300 140,293 141,292 141,290 142,289 143,284 145,282 146,279 149,276 149,275 157,268 163,265 165,265 166,264 169,264ZM453,259 449,261 447,263 445,267 445,277 447,281 452,286 454,286 455,287 459,287 460,286 462,286 466,282 467,280 467,277 468,276 468,273 467,272 467,268 464,264 464,263 460,260 458,260 457,259ZM172,259 171,260 166,260 165,261 163,261 162,262 160,262 156,264 154,266 153,266 144,275 144,276 142,278 139,284 139,286 137,290 137,294 136,295 136,308 137,309 137,313 138,314 138,317 143,327 145,329 145,330 151,336 152,336 155,339 161,342 163,342 164,343 167,343 168,344 182,344 183,343 186,343 189,341 191,341 195,338 196,338 204,331 204,330 209,324 210,322 210,320 213,314 213,311 214,310 214,293 213,292 213,288 211,285 211,283 209,279 204,273 204,272 201,269 200,269 196,265 188,261 185,261 184,260 179,260 178,259ZM481,254 486,254 487,255 486,257 483,257 481,260 481,265 484,268 489,268 490,270 488,272 483,272 478,267 478,265 477,264 477,259 478,257ZM478,251 474,256 474,260 473,261 474,263 474,267 475,268 475,270 480,275 482,276 489,276 493,273 495,269 495,260 494,259 494,257 493,255 490,252 486,250 481,250 480,251ZM526,256 538,262 540,264 544,266 551,273 553,277 553,282 551,285 549,286 546,286 543,288 541,288 540,289 538,289 534,291 531,291 530,292 527,292 526,293 523,293 522,294 519,294 518,295 515,295 514,296 511,296 510,297 506,297 505,298 502,298 501,299 497,299 496,300 492,300 491,301 487,301 486,302 481,302 480,303 475,303 472,305 472,308 474,310 475,310 477,312 478,312 480,314 481,314 483,316 484,316 486,318 487,318 489,320 490,320 492,322 493,322 504,330 507,331 509,333 510,333 515,337 520,339 522,341 528,344 530,344 532,345 533,347 530,350 528,351 526,351 525,352 522,352 521,353 512,353 511,352 507,352 506,351 503,351 502,350 499,350 498,349 494,349 493,348 480,348 478,350 478,357 477,358 477,369 476,370 476,386 475,387 475,402 474,403 472,403 469,401 467,401 466,400 462,400 461,399 454,399 453,400 451,400 447,402 445,404 443,408 443,414 444,415 444,419 440,423 440,425 439,426 439,433 441,437 447,442 447,451 449,455 451,457 455,459 467,459 468,458 470,458 471,459 471,470 470,471 470,474 469,475 469,485 476,499 482,505 482,506 483,506 488,511 489,511 492,514 498,517 500,519 506,522 508,522 513,525 518,526 519,527 522,527 523,528 526,528 527,529 530,529 531,530 536,530 537,531 547,531 548,532 560,532 561,531 563,531 564,533 561,536 560,536 558,538 554,540 552,540 549,542 547,542 541,545 538,545 534,547 531,547 530,548 526,548 525,549 520,549 519,550 510,550 509,551 490,551 489,550 480,550 479,549 474,549 473,548 470,548 469,547 465,547 461,545 458,545 457,544 455,544 454,543 452,543 451,542 446,541 443,539 441,539 427,532 425,530 419,527 416,524 416,523 424,511 424,510 422,508 420,508 416,512 416,513 412,518 411,521 409,523 409,525 406,530 406,533 405,534 405,537 404,538 404,543 403,544 403,546 402,547 402,549 400,553 392,561 390,562 388,562 387,563 385,563 384,562 382,562 380,561 377,557 379,552 382,549 383,546 381,544 378,545 375,548 375,549 373,551 373,553 371,555 366,555 363,552 363,551 365,547 368,544 369,542 369,540 368,539 366,539 364,540 361,543 358,549 356,549 354,547 354,543 355,541 360,536 364,534 366,534 370,532 376,532 377,531 381,531 382,530 382,524 383,523 383,517 384,516 384,513 385,512 385,510 389,502 394,496 394,495 392,493 388,495 387,497 384,500 384,501 381,505 381,507 379,510 379,513 378,514 373,514 372,513 370,513 356,506 346,497 346,493 348,491 348,489 347,488 344,488 338,494 338,495 336,497 333,503 332,508 328,516 326,518 326,519 319,526 315,528 310,529 309,528 307,528 303,525 302,522 305,518 305,517 309,513 309,510 305,510 302,513 300,514 300,515 297,519 295,519 293,518 291,516 291,513 292,511 297,506 297,503 293,503 291,504 286,510 284,509 284,506 285,504 292,498 294,498 298,496 302,496 303,495 315,495 316,493 316,490 317,489 317,486 319,482 319,480 322,474 326,469 326,468 330,464 344,464 345,465 374,465 375,464 380,464 386,467 389,467 390,468 394,468 395,469 409,469 410,468 413,468 419,465 423,461 424,459 424,457 425,456 425,449 423,446 423,443 425,441 425,439 426,438 426,429 425,428 425,426 420,421 418,420 415,420 414,419 410,419 409,418 409,413 407,409 405,407 403,406 394,406 393,407 391,407 385,412 384,412 380,416 380,417 373,425 371,426 369,426 368,424 380,408 385,398 387,396 391,388 391,386 394,381 394,379 396,376 396,374 397,373 397,371 398,370 398,368 399,367 399,365 400,364 400,362 402,358 402,355 403,354 403,351 404,350 404,347 405,346 405,343 406,342 406,339 407,338 407,335 408,334 408,330 410,326 410,323 411,322 412,315 414,311 414,308 415,307 415,305 416,304 416,302 417,301 418,296 420,293 420,291 423,286 423,284 428,274 430,272 433,266 437,262 437,261 446,252 447,252 452,248 456,246 458,246 459,245 462,245 463,244 481,244 482,245 488,245 489,246 493,246 494,247 498,247 499,248 506,249 507,250 509,250 510,251 512,251 513,252 515,252 516,253 521,254 524,256ZM435,242 439,245 440,245 442,247 442,248 440,249 434,255 433,255 432,254 432,246 433,245 433,243ZM226,171 232,171 233,172 235,172 239,174 247,182 247,184 246,185 244,184 240,184 239,185 237,185 235,186 232,189 231,191 231,193 230,194 230,199 231,200 231,202 232,204 235,207 239,209 246,209 247,210 247,211 244,214 243,216 235,220 228,220 220,216 215,211 214,208 212,206 212,204 210,200 210,188 211,187 211,185 214,179 219,174 223,172 225,172ZM227,166 226,167 222,167 216,170 210,176 210,177 208,179 207,181 207,183 206,184 206,187 205,188 205,200 206,201 206,204 207,205 207,207 210,213 218,221 222,223 224,223 225,224 228,224 229,225 235,225 236,224 239,224 245,221 251,215 254,209 254,207 255,206 255,202 256,201 256,193 255,192 255,188 254,187 254,185 251,179 249,177 249,176 244,171 236,167 231,167 230,166ZM393,144 391,146 390,148 390,151 389,152 390,154 390,157 392,161 395,164 397,165 401,165 403,164 406,160 406,151 405,149 400,144ZM292,138 295,138 296,139 299,139 301,140 303,142 304,142 309,147 309,149 308,150 302,150 298,152 295,156 295,158 294,159 294,163 295,164 295,167 296,169 299,172 301,173 310,173 311,174 310,177 306,181 300,184 294,184 293,183 291,183 287,181 281,175 277,167 277,163 276,162 276,156 277,155 277,152 278,151 278,149 279,147 286,140 288,139 291,139ZM424,134 422,135 419,139 419,147 420,148 420,150 425,155 432,155 435,151 435,142 434,141 434,139 430,135 428,134ZM288,134 280,138 277,141 277,142 274,146 274,148 272,152 272,166 273,167 273,170 277,178 284,185 290,188 295,188 296,189 298,189 299,188 303,188 304,187 306,187 308,186 315,179 317,175 317,173 318,172 318,169 319,168 319,158 318,157 318,154 313,144 306,137 302,135 300,135 299,134ZM112,116 124,116 125,117 127,117 133,120 136,123 137,123 144,130 144,131 147,134 147,135 151,140 156,150 156,152 158,155 158,157 160,161 160,165 156,168 155,168 147,175 146,175 135,185 132,185 129,182 128,182 115,169 115,168 111,164 111,163 107,158 102,148 102,146 101,145 101,142 100,141 100,137 99,136 99,133 100,132 100,128 102,124 108,118ZM369,103 370,104 370,106 367,110 367,112 364,118 364,122 363,123 363,144 364,145 365,154 366,155 366,157 367,158 367,160 368,161 368,163 369,164 370,169 377,183 379,185 381,189 384,192 384,193 393,202 394,202 399,206 405,209 407,209 408,210 412,210 413,211 424,211 425,213 409,228 408,228 405,231 404,231 393,239 386,242 382,245 380,245 375,248 373,248 372,249 370,249 366,251 362,251 360,249 357,249 356,250 356,252 352,255 352,257 353,258 359,258 360,259 370,279 370,281 371,282 371,285 372,286 372,289 373,290 373,295 374,296 374,316 373,317 372,326 371,327 371,329 370,330 369,335 367,338 367,340 364,346 362,348 361,351 359,353 357,357 354,360 354,361 350,365 350,366 339,377 338,377 329,385 328,385 320,391 315,393 313,395 305,399 303,399 293,404 291,404 290,405 288,405 284,407 281,407 277,409 274,409 273,410 269,410 268,411 264,411 263,412 259,412 258,413 251,413 250,414 239,414 238,415 223,415 222,414 210,414 209,413 203,413 202,412 197,412 196,411 192,411 191,410 184,409 183,408 181,408 180,407 178,407 177,406 175,406 174,405 169,404 164,401 162,401 154,397 152,395 149,394 147,392 146,392 144,390 140,388 131,380 130,380 121,371 121,370 113,361 113,360 107,352 100,338 100,336 98,333 98,331 97,330 97,328 95,324 95,321 93,317 93,313 92,312 92,307 91,306 91,298 90,297 90,282 91,281 91,273 92,272 92,267 93,266 93,263 94,262 94,258 95,257 95,255 96,254 96,252 97,251 98,246 109,224 114,218 114,217 117,214 117,213 122,208 122,207 134,195 135,195 137,197 141,199 144,198 144,194 142,193 140,191 140,190 145,185 146,185 151,180 152,180 160,173 167,174 168,173 168,168 170,166 171,166 173,164 176,163 178,161 181,160 183,158 186,157 188,155 194,152 197,152 199,154 201,155 203,155 205,153 203,149 204,147 206,146 208,146 222,139 224,139 232,135 234,135 235,134 240,133 243,131 245,131 246,130 248,130 249,129 251,129 252,128 254,128 258,126 261,126 262,125 264,125 268,123 271,123 275,121 278,121 282,119 285,119 286,118 289,118 290,117 293,117 294,116 297,116 298,115 302,115 303,114 306,114 307,113 311,113 312,112 315,112 316,111 320,111 321,110 325,110 326,109 331,109 332,108 336,108 337,107 342,107 343,106 348,106 349,105 354,105 355,104 361,104 362,103ZM391,99 396,99 397,98 403,98 404,99 409,99 410,100 412,100 413,101 415,101 416,102 418,102 422,104 424,106 428,108 433,113 434,113 435,115 441,121 444,127 446,129 447,131 447,133 449,136 449,138 451,142 451,145 452,146 452,150 453,151 453,168 452,169 452,173 451,174 451,177 449,180 449,182 447,186 442,192 442,193 439,196 438,196 435,199 434,199 430,202 428,202 424,204 412,204 411,203 409,203 401,199 398,196 397,196 390,189 390,188 387,185 387,184 383,179 382,176 380,174 379,172 379,170 376,165 376,163 375,162 375,160 374,159 374,157 372,153 372,150 371,149 371,145 370,144 370,136 369,135 369,131 370,130 370,123 371,122 371,119 372,118 372,116 375,112 375,111 377,109 377,108 382,103 388,100 390,100ZM207,69 208,70 211,70 215,73 216,73 224,81 224,82 226,84 229,90 229,92 231,95 231,98 233,102 233,106 234,107 234,113 235,114 235,127 229,130 224,131 214,136 212,136 205,140 203,140 200,142 198,142 195,138 192,131 190,129 190,127 187,122 187,120 186,119 186,117 184,113 184,110 183,109 183,106 182,105 182,88 183,87 183,85 184,84 184,82 185,80 191,73 192,73 194,71 196,71 200,69ZM195,63 187,67 180,74 177,80 177,82 176,83 176,86 175,87 175,105 176,106 176,110 177,111 178,118 181,124 181,126 188,140 191,144 191,145 189,147 178,152 176,154 173,155 171,157 167,159 165,156 165,154 162,148 162,146 157,136 155,134 155,133 153,131 151,127 140,116 139,116 134,112 132,112 129,110 126,110 125,109 112,109 111,110 108,110 102,113 97,118 97,119 94,123 94,125 93,126 93,132 92,133 92,135 93,136 93,143 94,144 94,147 96,150 96,152 101,162 103,164 105,168 109,172 109,173 123,187 124,187 127,190 127,192 114,205 114,206 107,214 107,215 103,220 102,223 100,225 94,237 94,239 92,242 92,244 90,247 90,250 89,251 89,253 88,254 88,257 87,258 87,261 86,262 86,266 85,267 85,272 84,273 84,305 85,306 85,312 86,313 86,317 87,318 88,325 89,326 89,328 90,329 91,334 93,337 93,339 95,342 95,344 99,352 101,354 105,362 108,365 108,366 111,369 111,370 115,374 115,375 125,385 126,385 132,391 132,392 124,401 124,402 118,410 117,413 115,415 112,421 112,423 109,428 109,430 108,431 108,433 107,434 107,436 105,440 105,443 103,447 103,451 102,452 102,456 101,457 101,462 100,463 100,469 99,470 99,489 98,490 98,494 99,495 99,508 100,509 100,515 96,518 94,518 93,519 91,518 91,514 92,513 92,509 93,508 93,500 92,499 92,496 89,490 84,485 82,484 80,484 79,483 76,483 75,482 69,482 68,483 65,483 61,485 55,491 54,493 54,495 53,496 53,498 52,499 52,509 53,510 53,513 57,521 56,522 51,521 47,517 47,516 44,512 40,510 35,510 34,511 32,511 29,514 28,516 28,518 27,519 28,526 30,530 37,537 45,541 47,541 48,542 53,542 54,543 62,543 63,542 67,542 68,541 70,541 76,537 80,539 82,539 83,540 98,540 99,539 101,539 102,538 104,538 106,537 108,539 108,541 109,543 111,545 112,548 114,550 116,554 128,566 129,566 135,571 138,572 140,574 148,578 150,578 155,581 157,581 159,583 159,588 158,589 158,597 157,598 157,605 156,606 156,612 155,613 155,619 154,620 154,626 153,627 153,629 148,634 145,640 145,652 146,653 146,655 147,657 152,662 154,663 156,663 160,665 164,665 165,666 172,666 173,667 206,667 207,666 215,666 216,665 221,665 222,664 225,664 226,663 229,663 230,662 235,661 241,658 247,653 249,649 249,645 250,644 250,641 249,640 249,636 247,632 240,625 234,622 229,621 228,620 224,620 223,619 217,619 216,618 193,618 192,619 187,619 186,618 186,611 187,610 187,603 188,602 188,596 189,595 189,592 190,591 194,591 195,592 199,592 200,593 207,593 208,594 215,594 216,595 230,595 231,596 253,596 254,595 269,595 270,594 279,594 280,593 287,593 288,592 292,592 293,593 293,615 294,616 294,633 292,635 290,639 290,651 294,657 304,662 307,662 308,663 312,663 313,664 320,664 321,665 358,665 359,664 366,664 367,663 371,663 372,662 379,661 389,656 394,650 394,648 395,647 395,637 392,631 387,626 386,626 384,624 382,623 380,623 377,621 374,621 373,620 369,620 368,619 362,619 361,618 338,618 337,619 330,619 329,620 324,620 323,619 323,586 325,584 330,583 333,581 335,581 338,579 340,579 348,575 350,573 356,570 367,561 372,561 375,565 381,568 391,568 392,567 394,567 396,566 399,563 401,562 401,561 404,558 408,550 408,548 409,547 409,542 410,541 410,537 413,531 415,531 417,533 423,536 425,538 435,543 437,543 440,545 442,545 445,547 447,547 448,548 450,548 454,550 457,550 458,551 465,552 466,553 470,553 471,554 476,554 477,555 484,555 485,556 514,556 515,555 522,555 523,554 528,554 529,553 533,553 534,552 537,552 538,551 540,551 541,550 544,550 545,549 550,548 553,546 555,546 565,541 571,535 571,529 568,526 561,526 559,524 557,519 554,516 552,515 549,515 548,516 546,516 543,519 543,520 541,521 539,518 539,516 536,513 534,512 531,512 527,514 525,516 524,516 522,513 522,511 521,509 519,507 513,507 509,509 506,512 505,512 504,511 505,509 505,501 504,499 500,496 496,496 488,500 486,500 483,497 483,496 485,494 487,490 487,482 484,479 478,476 478,470 477,469 477,454 479,452 480,452 481,450 484,447 487,441 487,438 488,437 488,421 487,420 487,418 484,412 480,408 480,402 481,401 481,398 482,397 489,397 490,398 494,398 495,399 495,403 496,404 496,406 497,408 499,410 501,410 502,411 505,411 507,410 512,404 514,405 520,405 522,404 525,401 525,394 524,392 526,388 526,385 525,383 522,380 517,380 516,379 516,376 513,372 506,372 504,373 499,378 492,378 491,377 486,377 485,376 483,376 482,375 482,368 483,367 483,357 484,356 484,354 485,353 488,353 489,354 494,354 495,355 498,355 499,356 502,356 503,357 507,357 508,358 514,358 515,359 519,359 520,358 526,358 527,357 529,357 535,354 539,350 540,348 540,343 538,341 536,340 534,340 531,338 531,333 530,332 530,327 528,325 525,325 522,327 520,327 518,324 518,320 516,318 513,318 506,322 503,322 501,320 500,320 498,318 498,317 502,315 504,311 504,309 505,308 506,308 510,313 515,313 517,310 517,308 519,306 520,306 523,309 525,310 528,310 530,308 531,306 531,304 532,303 534,303 537,306 541,306 544,302 544,300 545,299 546,294 548,292 550,292 554,290 558,286 558,284 559,283 559,276 555,268 549,262 548,262 543,258 529,251 527,251 524,249 522,249 519,247 517,247 513,245 510,245 509,244 507,244 506,243 503,243 502,242 499,242 498,241 494,241 493,240 488,240 487,239 480,239 479,238 464,238 463,239 460,239 459,240 456,240 455,241 453,241 450,243 447,243 443,240 437,237 431,237 429,239 428,241 428,243 427,244 427,258 426,259 412,259 411,260 409,260 407,261 405,264 405,270 406,271 406,273 409,279 413,284 413,285 412,286 405,286 404,287 401,287 400,288 398,288 394,290 391,294 391,300 392,301 392,303 394,305 395,308 404,317 404,318 402,320 397,321 391,324 389,326 388,326 383,331 382,333 382,338 385,342 385,343 389,347 390,347 393,350 394,350 395,352 394,353 391,353 390,354 386,354 385,355 382,355 379,357 377,357 372,362 372,368 377,378 373,381 364,382 358,376 357,376 354,373 354,372 363,361 363,360 367,355 370,348 372,346 372,344 375,339 375,337 376,336 376,334 378,330 378,327 379,326 379,323 380,322 380,316 381,315 381,297 380,296 380,290 379,289 379,285 378,284 378,282 377,281 377,279 376,278 376,276 375,275 374,270 368,258 370,256 373,256 376,254 381,253 395,246 397,244 400,243 402,241 406,239 413,233 414,233 418,229 419,229 435,213 435,212 439,208 439,207 443,203 443,202 449,196 449,195 453,190 456,184 456,182 458,178 458,175 459,174 459,169 460,168 460,150 459,149 459,144 458,143 458,140 457,139 456,134 454,131 454,129 451,123 449,121 447,117 444,114 444,113 435,104 434,104 428,99 420,95 418,95 414,93 410,93 409,92 388,92 387,93 382,93 381,94 376,94 375,95 369,95 368,96 362,96 361,97 355,97 354,98 349,98 348,99 343,99 342,100 337,100 336,101 332,101 331,102 327,102 326,103 322,103 321,104 312,105 311,106 308,106 307,107 303,107 302,108 299,108 298,109 295,109 294,110 291,110 290,111 287,111 286,112 279,113 275,115 272,115 268,117 265,117 264,118 262,118 258,120 255,120 254,121 252,121 251,122 249,122 248,123 243,124 242,123 242,115 241,114 241,107 240,106 240,101 238,97 238,94 237,93 236,88 232,80 230,78 228,74 222,68 221,68 219,66 215,64 213,64 212,63 209,63 208,62 200,62 199,63Z" fill="#292929" fill-rule="evenodd"/></g></svg>